<mxfile host="app.diagrams.net" agent="Mozilla/5.0 (Windows NT 10.0; Win64; x64) AppleWebKit/537.36 (KHTML, like Gecko) Chrome/140.0.0.0 Safari/537.36" version="28.2.3">
  <diagram name="PÃ¡gina-1" id="HPb5tKKoD9aplFfBWQ5H">
    <mxGraphModel dx="1481" dy="1890" grid="1" gridSize="10" guides="1" tooltips="1" connect="1" arrows="1" fold="1" page="1" pageScale="1" pageWidth="827" pageHeight="1169" math="0" shadow="0">
      <root>
        <mxCell id="0" />
        <mxCell id="1" parent="0" />
        <mxCell id="Tn8aEO137HxeCRS6yR0H-5" value="DirectorioTelefonico" style="swimlane;fontStyle=1;align=center;verticalAlign=top;childLayout=stackLayout;horizontal=1;startSize=26;horizontalStack=0;resizeParent=1;resizeParentMax=0;resizeLast=0;collapsible=1;marginBottom=0;whiteSpace=wrap;html=1;" vertex="1" parent="1">
          <mxGeometry x="470" y="60" width="240" height="300" as="geometry" />
        </mxCell>
        <mxCell id="Tn8aEO137HxeCRS6yR0H-6" value="    -contactos: TreeMap&amp;lt;Long, Cliente&amp;gt;&lt;div&gt;&lt;br/&gt;&lt;/div&gt;" style="text;strokeColor=none;fillColor=none;align=left;verticalAlign=top;spacingLeft=4;spacingRight=4;overflow=hidden;rotatable=0;points=[[0,0.5],[1,0.5]];portConstraint=eastwest;whiteSpace=wrap;html=1;" vertex="1" parent="Tn8aEO137HxeCRS6yR0H-5">
          <mxGeometry y="26" width="240" height="26" as="geometry" />
        </mxCell>
        <mxCell id="Tn8aEO137HxeCRS6yR0H-7" value="" style="line;strokeWidth=1;fillColor=none;align=left;verticalAlign=middle;spacingTop=-1;spacingLeft=3;spacingRight=3;rotatable=0;labelPosition=right;points=[];portConstraint=eastwest;strokeColor=inherit;" vertex="1" parent="Tn8aEO137HxeCRS6yR0H-5">
          <mxGeometry y="52" width="240" height="68" as="geometry" />
        </mxCell>
        <mxCell id="Tn8aEO137HxeCRS6yR0H-8" value="+DirectorioTelefonico()&lt;br/&gt;    +agregarContacto(telefono: Long, c: Cliente): void&lt;br/&gt;    +buscarContacto(telefono: Long): Cliente&lt;br/&gt;    +buscarTelefono(apellido: String): Set&amp;lt;Long&amp;gt;&lt;br/&gt;    +buscarContactos(ciudad: String): ArrayList&amp;lt;Cliente&amp;gt;&lt;br/&gt;    +borrarContacto(telefono: Long): void&lt;br/&gt;    +mostrarTodos(): void" style="text;strokeColor=none;fillColor=none;align=left;verticalAlign=top;spacingLeft=4;spacingRight=4;overflow=hidden;rotatable=0;points=[[0,0.5],[1,0.5]];portConstraint=eastwest;whiteSpace=wrap;html=1;" vertex="1" parent="Tn8aEO137HxeCRS6yR0H-5">
          <mxGeometry y="120" width="240" height="180" as="geometry" />
        </mxCell>
        <mxCell id="Tn8aEO137HxeCRS6yR0H-9" value="1" style="endArrow=open;html=1;endSize=12;startArrow=diamondThin;startSize=14;startFill=1;align=left;verticalAlign=bottom;rounded=0;entryX=1;entryY=0.5;entryDx=0;entryDy=0;exitX=0.046;exitY=0.515;exitDx=0;exitDy=0;exitPerimeter=0;" edge="1" parent="1" source="Tn8aEO137HxeCRS6yR0H-7" target="Tn8aEO137HxeCRS6yR0H-46">
          <mxGeometry x="-1" y="3" relative="1" as="geometry">
            <mxPoint x="380" y="170" as="sourcePoint" />
            <mxPoint x="305.06000000000006" y="105.05999999999995" as="targetPoint" />
          </mxGeometry>
        </mxCell>
        <mxCell id="Tn8aEO137HxeCRS6yR0H-10" value="BucarClientes " style="swimlane;fontStyle=1;align=center;verticalAlign=top;childLayout=stackLayout;horizontal=1;startSize=26;horizontalStack=0;resizeParent=1;resizeParentMax=0;resizeLast=0;collapsible=1;marginBottom=0;whiteSpace=wrap;html=1;" vertex="1" parent="1">
          <mxGeometry x="1260" y="-310" width="320" height="330" as="geometry" />
        </mxCell>
        <mxCell id="Tn8aEO137HxeCRS6yR0H-11" value="-directorio: DirectorioTelefonico&lt;br/&gt;    -jrbApellido: JRadioButton&lt;br/&gt;    -jrbTelefono: JRadioButton&lt;br/&gt;    -jtBuscarPor: JTextField&lt;br/&gt;    -jtDni: JTextField&lt;br/&gt;    -jtNombre: JTextField&lt;br/&gt;    -jtApellido: JTextField&lt;br/&gt;    -jtCiudad: JTextField&lt;br/&gt;    -jtDireccion: JTextField" style="text;strokeColor=none;fillColor=none;align=left;verticalAlign=top;spacingLeft=4;spacingRight=4;overflow=hidden;rotatable=0;points=[[0,0.5],[1,0.5]];portConstraint=eastwest;whiteSpace=wrap;html=1;" vertex="1" parent="Tn8aEO137HxeCRS6yR0H-10">
          <mxGeometry y="26" width="320" height="144" as="geometry" />
        </mxCell>
        <mxCell id="Tn8aEO137HxeCRS6yR0H-12" value="" style="line;strokeWidth=1;fillColor=none;align=left;verticalAlign=middle;spacingTop=-1;spacingLeft=3;spacingRight=3;rotatable=0;labelPosition=right;points=[];portConstraint=eastwest;strokeColor=inherit;" vertex="1" parent="Tn8aEO137HxeCRS6yR0H-10">
          <mxGeometry y="170" width="320" height="8" as="geometry" />
        </mxCell>
        <mxCell id="Tn8aEO137HxeCRS6yR0H-13" value="+BucarClientes(directorio: DirectorioTelefonico)&lt;br/&gt;    -initComponents(): void&lt;br/&gt;    -jtBuscarPorKeyReleased(evt: KeyEvent): void&lt;br/&gt;    -jrbTelefonoActionPerformed(evt: ActionEvent): void&lt;br/&gt;    -jrbApellidoActionPerformed(evt: ActionEvent): void&lt;br/&gt;    -jbNuevoActionPerformed(evt: ActionEvent): void&lt;br/&gt;    -jbSalirActionPerformed(evt: ActionEvent): void&lt;br/&gt;    -jbGuardarActionPerformed(evt: ActionEvent): void&lt;br/&gt;    -jbBorrarActionPerformed(evt: ActionEvent): void" style="text;strokeColor=none;fillColor=none;align=left;verticalAlign=top;spacingLeft=4;spacingRight=4;overflow=hidden;rotatable=0;points=[[0,0.5],[1,0.5]];portConstraint=eastwest;whiteSpace=wrap;html=1;" vertex="1" parent="Tn8aEO137HxeCRS6yR0H-10">
          <mxGeometry y="178" width="320" height="152" as="geometry" />
        </mxCell>
        <mxCell id="Tn8aEO137HxeCRS6yR0H-14" value="Ciudades" style="swimlane;fontStyle=1;align=center;verticalAlign=top;childLayout=stackLayout;horizontal=1;startSize=26;horizontalStack=0;resizeParent=1;resizeParentMax=0;resizeLast=0;collapsible=1;marginBottom=0;whiteSpace=wrap;html=1;" vertex="1" parent="1">
          <mxGeometry x="1260" y="520" width="300" height="230" as="geometry" />
        </mxCell>
        <mxCell id="Tn8aEO137HxeCRS6yR0H-15" value="  -directorio: DirectorioTelefonico&lt;br&gt;    -jtCiudad: JTextField&lt;br&gt;    -jtDni: JTextField&lt;br&gt;    -jtNombre: JTextField&lt;br&gt;    -jtApellido: JTextField&lt;br&gt;    -jtDireccion: JTextField&lt;div&gt;&lt;br/&gt;&lt;/div&gt;" style="text;strokeColor=none;fillColor=none;align=left;verticalAlign=top;spacingLeft=4;spacingRight=4;overflow=hidden;rotatable=0;points=[[0,0.5],[1,0.5]];portConstraint=eastwest;whiteSpace=wrap;html=1;" vertex="1" parent="Tn8aEO137HxeCRS6yR0H-14">
          <mxGeometry y="26" width="300" height="104" as="geometry" />
        </mxCell>
        <mxCell id="Tn8aEO137HxeCRS6yR0H-16" value="" style="line;strokeWidth=1;fillColor=none;align=left;verticalAlign=middle;spacingTop=-1;spacingLeft=3;spacingRight=3;rotatable=0;labelPosition=right;points=[];portConstraint=eastwest;strokeColor=inherit;" vertex="1" parent="Tn8aEO137HxeCRS6yR0H-14">
          <mxGeometry y="130" width="300" height="8" as="geometry" />
        </mxCell>
        <mxCell id="Tn8aEO137HxeCRS6yR0H-17" value="+Ciudades(directorio: DirectorioTelefonico)&lt;br/&gt;    -initComponents(): void&lt;br/&gt;    -jtCiudadKeyReleased(evt: KeyEvent): void&lt;br/&gt;    -jbSalirActionPerformed(evt: ActionEvent): void" style="text;strokeColor=none;fillColor=none;align=left;verticalAlign=top;spacingLeft=4;spacingRight=4;overflow=hidden;rotatable=0;points=[[0,0.5],[1,0.5]];portConstraint=eastwest;whiteSpace=wrap;html=1;" vertex="1" parent="Tn8aEO137HxeCRS6yR0H-14">
          <mxGeometry y="138" width="300" height="92" as="geometry" />
        </mxCell>
        <mxCell id="Tn8aEO137HxeCRS6yR0H-22" value="Clientes" style="swimlane;fontStyle=1;align=center;verticalAlign=top;childLayout=stackLayout;horizontal=1;startSize=26;horizontalStack=0;resizeParent=1;resizeParentMax=0;resizeLast=0;collapsible=1;marginBottom=0;whiteSpace=wrap;html=1;" vertex="1" parent="1">
          <mxGeometry x="1340" y="90" width="290" height="260" as="geometry" />
        </mxCell>
        <mxCell id="Tn8aEO137HxeCRS6yR0H-23" value=" -directorio: DirectorioTelefonico&lt;br/&gt;    -jtTelefono: JTextField&lt;br/&gt;    -jtDni: JTextField&lt;br/&gt;    -jtNombre: JTextField&lt;br/&gt;    -jtApellido: JTextField&lt;br/&gt;    -jtCiudad: JTextField&lt;br/&gt;    -jtDireccion: JTextField" style="text;strokeColor=none;fillColor=none;align=left;verticalAlign=top;spacingLeft=4;spacingRight=4;overflow=hidden;rotatable=0;points=[[0,0.5],[1,0.5]];portConstraint=eastwest;whiteSpace=wrap;html=1;" vertex="1" parent="Tn8aEO137HxeCRS6yR0H-22">
          <mxGeometry y="26" width="290" height="134" as="geometry" />
        </mxCell>
        <mxCell id="Tn8aEO137HxeCRS6yR0H-24" value="" style="line;strokeWidth=1;fillColor=none;align=left;verticalAlign=middle;spacingTop=-1;spacingLeft=3;spacingRight=3;rotatable=0;labelPosition=right;points=[];portConstraint=eastwest;strokeColor=inherit;" vertex="1" parent="Tn8aEO137HxeCRS6yR0H-22">
          <mxGeometry y="160" width="290" height="8" as="geometry" />
        </mxCell>
        <mxCell id="Tn8aEO137HxeCRS6yR0H-25" value="  +Clientes(directorio: DirectorioTelefonico)&lt;br&gt;    -initComponents(): void&lt;br&gt;    -jbGuardarActionPerformed(evt: ActionEvent): void&lt;br&gt;    -jbNuevoActionPerformed(evt: ActionEvent): void&lt;div&gt;-jbSalirActionPerformed(evt: ActionEvent): void&amp;nbsp;&lt;/div&gt;" style="text;strokeColor=none;fillColor=none;align=left;verticalAlign=top;spacingLeft=4;spacingRight=4;overflow=hidden;rotatable=0;points=[[0,0.5],[1,0.5]];portConstraint=eastwest;whiteSpace=wrap;html=1;" vertex="1" parent="Tn8aEO137HxeCRS6yR0H-22">
          <mxGeometry y="168" width="290" height="92" as="geometry" />
        </mxCell>
        <mxCell id="Tn8aEO137HxeCRS6yR0H-26" value=" frmMenuPrincipal" style="swimlane;fontStyle=1;align=center;verticalAlign=top;childLayout=stackLayout;horizontal=1;startSize=26;horizontalStack=0;resizeParent=1;resizeParentMax=0;resizeLast=0;collapsible=1;marginBottom=0;whiteSpace=wrap;html=1;" vertex="1" parent="1">
          <mxGeometry x="840" y="100" width="340" height="320" as="geometry" />
        </mxCell>
        <mxCell id="Tn8aEO137HxeCRS6yR0H-27" value="  -directorioGlobal: DirectorioTelefonico&lt;br/&gt;    -jMenu1: JMenu&lt;br/&gt;    -jMenu2: JMenu&lt;br/&gt;    -jMenu3: JMenu&lt;br/&gt;    -jMenuBar1: JMenuBar&lt;br/&gt;    -jmiAltas: JMenuItem&lt;br/&gt;    -jmiBorrar: JMenuItem&lt;br/&gt;    -jmiSalir: JMenuItem&lt;br/&gt;    -jmiBuscarCliente: JMenuItem&lt;br/&gt;    -jmiBuscarCiudad: JMenuItem" style="text;strokeColor=none;fillColor=none;align=left;verticalAlign=top;spacingLeft=4;spacingRight=4;overflow=hidden;rotatable=0;points=[[0,0.5],[1,0.5]];portConstraint=eastwest;whiteSpace=wrap;html=1;" vertex="1" parent="Tn8aEO137HxeCRS6yR0H-26">
          <mxGeometry y="26" width="340" height="164" as="geometry" />
        </mxCell>
        <mxCell id="Tn8aEO137HxeCRS6yR0H-28" value="" style="line;strokeWidth=1;fillColor=none;align=left;verticalAlign=middle;spacingTop=-1;spacingLeft=3;spacingRight=3;rotatable=0;labelPosition=right;points=[];portConstraint=eastwest;strokeColor=inherit;" vertex="1" parent="Tn8aEO137HxeCRS6yR0H-26">
          <mxGeometry y="190" width="340" height="8" as="geometry" />
        </mxCell>
        <mxCell id="Tn8aEO137HxeCRS6yR0H-29" value=" +frmMenuPrincipal()&lt;br/&gt;    +main(args: String[]): void&lt;br/&gt;    -initComponents(): void&lt;br/&gt;    -jmiSalirActionPerformed(evt: ActionEvent): void&lt;br/&gt;    -jmiAltasActionPerformed(evt: ActionEvent): void&lt;br/&gt;    -jmiBuscarClienteActionPerformed(evt: ActionEvent): void&lt;br/&gt;    -jmiBuscarCiudadActionPerformed(evt: ActionEvent): void" style="text;strokeColor=none;fillColor=none;align=left;verticalAlign=top;spacingLeft=4;spacingRight=4;overflow=hidden;rotatable=0;points=[[0,0.5],[1,0.5]];portConstraint=eastwest;whiteSpace=wrap;html=1;" vertex="1" parent="Tn8aEO137HxeCRS6yR0H-26">
          <mxGeometry y="198" width="340" height="122" as="geometry" />
        </mxCell>
        <mxCell id="Tn8aEO137HxeCRS6yR0H-34" value="1" style="endArrow=open;html=1;endSize=12;startArrow=diamondThin;startSize=14;startFill=1;align=left;verticalAlign=bottom;rounded=0;entryX=1.042;entryY=0.056;entryDx=0;entryDy=0;entryPerimeter=0;exitX=0;exitY=0.5;exitDx=0;exitDy=0;" edge="1" parent="1" source="Tn8aEO137HxeCRS6yR0H-27" target="Tn8aEO137HxeCRS6yR0H-8">
          <mxGeometry x="-1" y="3" relative="1" as="geometry">
            <mxPoint x="1680" y="240" as="sourcePoint" />
            <mxPoint x="1840" y="240" as="targetPoint" />
          </mxGeometry>
        </mxCell>
        <mxCell id="Tn8aEO137HxeCRS6yR0H-39" value="1" style="endArrow=open;html=1;endSize=12;startArrow=diamondThin;startSize=14;startFill=0;align=left;verticalAlign=bottom;rounded=0;exitX=0.375;exitY=1.066;exitDx=0;exitDy=0;exitPerimeter=0;entryX=0.5;entryY=0;entryDx=0;entryDy=0;" edge="1" parent="1" source="Tn8aEO137HxeCRS6yR0H-13" target="Tn8aEO137HxeCRS6yR0H-26">
          <mxGeometry x="-1" y="3" relative="1" as="geometry">
            <mxPoint x="1190" y="390" as="sourcePoint" />
            <mxPoint x="1350" y="390" as="targetPoint" />
          </mxGeometry>
        </mxCell>
        <mxCell id="Tn8aEO137HxeCRS6yR0H-40" value="1" style="endArrow=open;html=1;endSize=12;startArrow=diamondThin;startSize=14;startFill=0;align=left;verticalAlign=bottom;rounded=0;exitX=0.25;exitY=0;exitDx=0;exitDy=0;entryX=0.579;entryY=1.024;entryDx=0;entryDy=0;entryPerimeter=0;" edge="1" parent="1" source="Tn8aEO137HxeCRS6yR0H-14" target="Tn8aEO137HxeCRS6yR0H-29">
          <mxGeometry x="-1" y="3" relative="1" as="geometry">
            <mxPoint x="1050" y="290" as="sourcePoint" />
            <mxPoint x="1150" y="920" as="targetPoint" />
          </mxGeometry>
        </mxCell>
        <mxCell id="Tn8aEO137HxeCRS6yR0H-41" value="1" style="endArrow=open;html=1;endSize=12;startArrow=diamondThin;startSize=14;startFill=0;align=left;verticalAlign=bottom;rounded=0;exitX=0;exitY=0.5;exitDx=0;exitDy=0;entryX=1;entryY=0.5;entryDx=0;entryDy=0;" edge="1" parent="1" source="Tn8aEO137HxeCRS6yR0H-23" target="Tn8aEO137HxeCRS6yR0H-27">
          <mxGeometry x="-1" y="3" relative="1" as="geometry">
            <mxPoint x="1170" y="290" as="sourcePoint" />
            <mxPoint x="1270" y="920" as="targetPoint" />
          </mxGeometry>
        </mxCell>
        <mxCell id="Tn8aEO137HxeCRS6yR0H-45" value="Clientes" style="swimlane;fontStyle=1;align=center;verticalAlign=top;childLayout=stackLayout;horizontal=1;startSize=26;horizontalStack=0;resizeParent=1;resizeParentMax=0;resizeLast=0;collapsible=1;marginBottom=0;whiteSpace=wrap;html=1;" vertex="1" parent="1">
          <mxGeometry y="60" width="450" height="430" as="geometry" />
        </mxCell>
        <mxCell id="Tn8aEO137HxeCRS6yR0H-46" value="&lt;div&gt;-dni: int&lt;/div&gt;&lt;div&gt;-nombre: String&lt;/div&gt;&lt;div&gt;-apellido: String&lt;/div&gt;&lt;div&gt;-ciudad: String&lt;/div&gt;&lt;div&gt;-direccion: String&lt;/div&gt;" style="text;strokeColor=none;fillColor=none;align=left;verticalAlign=top;spacingLeft=4;spacingRight=4;overflow=hidden;rotatable=0;points=[[0,0.5],[1,0.5]];portConstraint=eastwest;whiteSpace=wrap;html=1;" vertex="1" parent="Tn8aEO137HxeCRS6yR0H-45">
          <mxGeometry y="26" width="450" height="84" as="geometry" />
        </mxCell>
        <mxCell id="Tn8aEO137HxeCRS6yR0H-47" value="" style="line;strokeWidth=1;fillColor=none;align=left;verticalAlign=middle;spacingTop=-1;spacingLeft=3;spacingRight=3;rotatable=0;labelPosition=right;points=[];portConstraint=eastwest;strokeColor=inherit;" vertex="1" parent="Tn8aEO137HxeCRS6yR0H-45">
          <mxGeometry y="110" width="450" height="8" as="geometry" />
        </mxCell>
        <mxCell id="Tn8aEO137HxeCRS6yR0H-48" value="&lt;div&gt;&amp;nbsp;+Cliente(dni: int, nombre: String, apellido: String, ciudad: String, direccion: String)&lt;/div&gt;&lt;div&gt;&amp;nbsp; &amp;nbsp; +getDni(): int&lt;/div&gt;&lt;div&gt;&amp;nbsp; &amp;nbsp; +setDni(dni: int): void&lt;/div&gt;&lt;div&gt;&amp;nbsp; &amp;nbsp; +getNombre(): String&lt;/div&gt;&lt;div&gt;&amp;nbsp; &amp;nbsp; +setNombre(nombre: String): void&lt;/div&gt;&lt;div&gt;&amp;nbsp; &amp;nbsp; +getApellido(): String&lt;/div&gt;&lt;div&gt;&amp;nbsp; &amp;nbsp; +setApellido(apellido: String): void&lt;/div&gt;&lt;div&gt;&amp;nbsp; &amp;nbsp; +getCiudad(): String&lt;/div&gt;&lt;div&gt;&amp;nbsp; &amp;nbsp; +setCiudad(ciudad: String): void&lt;/div&gt;&lt;div&gt;&amp;nbsp; &amp;nbsp; +getDireccion(): String&lt;/div&gt;&lt;div&gt;&amp;nbsp; &amp;nbsp; +setDireccion(direccion: String): void&lt;/div&gt;&lt;div&gt;&amp;nbsp; &amp;nbsp; +toString(): String&lt;/div&gt;" style="text;strokeColor=none;fillColor=none;align=left;verticalAlign=top;spacingLeft=4;spacingRight=4;overflow=hidden;rotatable=0;points=[[0,0.5],[1,0.5]];portConstraint=eastwest;whiteSpace=wrap;html=1;" vertex="1" parent="Tn8aEO137HxeCRS6yR0H-45">
          <mxGeometry y="118" width="450" height="312" as="geometry" />
        </mxCell>
      </root>
    </mxGraphModel>
  </diagram>
</mxfile>
